<?xml version="1.0" encoding="UTF-8" standalone="no"?>
<!-- Created with Inkscape (http://www.inkscape.org/) -->

<svg
   xmlns:dc="http://purl.org/dc/elements/1.1/"
   xmlns:cc="http://creativecommons.org/ns#"
   xmlns:rdf="http://www.w3.org/1999/02/22-rdf-syntax-ns#"
   xmlns:svg="http://www.w3.org/2000/svg"
   xmlns="http://www.w3.org/2000/svg"
   xmlns:sodipodi="http://sodipodi.sourceforge.net/DTD/sodipodi-0.dtd"
   xmlns:inkscape="http://www.inkscape.org/namespaces/inkscape"
   width="445"
   height="100"
   viewBox="0 0 117.73958 26.458334"
   version="1.1"
   id="svg1469"
   inkscape:version="0.92.4 (5da689c313, 2019-01-14)"
   sodipodi:docname="logo-text-full.svg">
  <defs
     id="defs1463" />
  <sodipodi:namedview
     id="base"
     pagecolor="#ffffff"
     bordercolor="#666666"
     borderopacity="1.0"
     inkscape:pageopacity="0.0"
     inkscape:pageshadow="2"
     inkscape:zoom="1.4"
     inkscape:cx="166.68517"
     inkscape:cy="-176.02036"
     inkscape:document-units="px"
     inkscape:current-layer="layer1"
     showgrid="false"
     units="px"
     inkscape:window-width="3000"
     inkscape:window-height="1859"
     inkscape:window-x="-14"
     inkscape:window-y="-14"
     inkscape:window-maximized="1" />
  <metadata
     id="metadata1466">
    <rdf:RDF>
      <cc:Work
         rdf:about="">
        <dc:format>image/svg+xml</dc:format>
        <dc:type
           rdf:resource="http://purl.org/dc/dcmitype/StillImage" />
        <dc:title></dc:title>
      </cc:Work>
    </rdf:RDF>
  </metadata>
  <g
     inkscape:label="Layer 1"
     inkscape:groupmode="layer"
     id="layer1"
     transform="translate(0,-270.54164)">
    <path
       inkscape:connector-curvature="0"
       style="fill:#ffdd00;fill-opacity:1;fill-rule:evenodd;stroke-width:0.26457009"
       id="Path 0-6-3"
       class="shp0"
       d="m 34.626269,278.64005 c 0.362114,-0.005 0.898673,0.15095 1.189421,0.34956 0.319821,0.21716 0.60528,0.82096 0.724223,1.52539 0.108371,0.63823 0.319823,3.72344 0.473125,6.85631 0.219382,4.5232 0.206172,5.90824 -0.06344,6.74243 -0.243171,0.74151 -0.533916,1.10167 -1.001752,1.23143 -0.364758,0.10064 -1.07841,0.19862 -1.585894,0.21716 -0.541848,0.0212 -1.197351,-0.16949 -1.585894,-0.46079 -0.364757,-0.27542 -1.107485,-1.35061 -1.651974,-2.39402 -0.544489,-1.04076 -1.110125,-1.89349 -1.255498,-1.89349 -0.150659,0 -0.261673,0.76534 -0.256387,1.78756 0.0079,1.38239 -0.0978,1.8882 -0.462552,2.22718 -0.25903,0.24364 -1.125985,0.56142 -1.924218,0.70708 -0.800875,0.14565 -1.784128,0.18537 -2.191176,0.0874 -0.404401,-0.0953 -0.782374,-0.35487 -0.83788,-0.57202 -0.05551,-0.21981 -0.182377,-3.55659 -0.280175,-7.41508 -0.177091,-6.89339 -0.171805,-7.02845 0.372687,-7.57663 0.396473,-0.39724 1.065192,-0.6144 2.341835,-0.76005 1.667834,-0.19067 1.823779,-0.16154 2.384127,0.42637 0.333034,0.34427 0.73215,1.04341 0.8881,1.55452 0.158589,0.50846 0.602637,1.61543 0.985899,2.46022 0.383257,0.84214 0.787656,1.52803 0.896027,1.52274 0.108371,-0.005 0.121584,-1.054 0.02643,-2.32781 -0.113652,-1.54658 -0.06872,-2.51583 0.132159,-2.91307 0.166521,-0.32838 0.689862,-0.77064 1.16299,-0.9825 0.473127,-0.21186 1.155059,-0.39194 1.519814,-0.39988 z"
       sodipodi:nodetypes="cccccccccsccccccccccccccsc" />
    <path
       inkscape:connector-curvature="0"
       style="fill:#26cc10;fill-opacity:1;fill-rule:evenodd;stroke-width:0.26457009"
       id="Path 0-6-3-7"
       class="shp0"
       d="m 40.499641,278.54396 c 1.46695,-0.005 1.646682,0.0609 3.171782,1.75579 l 0.726872,-0.88981 c 0.69515,-0.85274 0.806161,-0.89246 2.510996,-0.89511 1.287216,0 1.961219,0.12712 2.418485,0.46344 0.544488,0.39989 0.615854,0.63293 0.512773,1.6578 -0.06344,0.65412 -0.483693,1.90674 -0.930389,2.78066 -0.446693,0.87392 -1.12863,2.06563 -1.514528,2.64825 -0.552421,0.83684 -0.705726,1.39297 -0.718939,2.64824 -0.01058,0.87392 -0.0026,2.54232 0.01588,3.70755 0.03172,1.71606 -0.05286,2.20598 -0.433477,2.58203 -0.274892,0.27277 -1.081048,0.5323 -1.926863,0.62764 -0.946248,0.10328 -1.802627,0.0344 -2.450203,-0.20127 -0.54978,-0.19862 -0.996474,-0.4502 -0.991185,-0.55878 0.0026,-0.10858 -0.05551,-0.31779 -0.126875,-0.46344 -0.074,-0.14565 -0.126868,-2.14243 -0.113652,-8.6068 l -1.03083,-1.19171 c -0.565637,-0.65676 -1.342721,-1.63926 -1.72598,-2.1848 -0.383257,-0.54554 -0.64493,-1.2023 -0.581496,-1.45653 0.06343,-0.25424 0.203525,-0.79713 0.311893,-1.20231 0.108368,-0.40783 0.444053,-0.84744 0.742728,-0.9772 0.301318,-0.12976 1.260785,-0.23834 2.133029,-0.24364 z"
       sodipodi:nodetypes="ccccccscccccccccccscccc" />
    <path
       inkscape:connector-curvature="0"
       style="fill:#18c1f5;fill-opacity:1;fill-rule:evenodd;stroke-width:0.26457009"
       id="Path 0-6-3-3"
       class="shp0"
       d="m 62.966358,273.98262 c 1.178846,-0.0185 1.942717,0.14565 2.973549,0.63557 1.044044,0.49787 1.485456,0.88717 1.784131,1.5863 0.216738,0.50847 0.396475,1.4327 0.399118,2.05239 0,0.61969 -0.177096,1.39298 -0.396478,1.72136 -0.219379,0.32839 -0.845807,0.71503 -1.3903,0.85803 -0.544487,0.14566 -1.585892,0.27807 -3.634338,0.32309 l 1.879285,0.43431 c 1.033476,0.24099 2.103948,0.63293 2.378839,0.87128 0.274892,0.23834 0.851096,1.19171 1.284576,2.11859 0.602637,1.29499 0.77973,2.05239 0.771798,3.27323 -0.0079,1.17847 -0.21145,2.02856 -0.785019,3.28118 -0.422902,0.93218 -1.189418,2.07093 -1.696902,2.53437 -0.51013,0.46079 -1.342721,0.9772 -1.85021,1.14668 -0.51013,0.17214 -2.294261,0.41313 -3.964731,0.5429 -1.694268,0.12711 -3.420245,0.12976 -3.898657,0.005 -0.629071,-0.16683 -0.964753,-0.47668 -1.255498,-1.15463 -0.219385,-0.51111 -0.396473,-1.61278 -0.393832,-2.44962 0,-0.83685 0.118943,-1.9703 0.264316,-2.51584 0.142732,-0.54554 0.499557,-1.23143 0.790305,-1.52274 0.465196,-0.46609 0.880171,-0.52965 3.436101,-0.52965 1.599113,0 2.910118,-0.09 2.912761,-0.19862 0.0026,-0.10857 -0.148018,-0.34956 -0.330398,-0.53494 -0.216739,-0.21716 -1.104837,-0.33368 -2.516283,-0.33103 -1.199989,0.003 -2.41849,-0.11388 -2.709238,-0.25953 -0.290745,-0.14565 -0.721577,-0.65147 -0.956821,-1.1255 -0.235238,-0.47404 -0.491625,-1.69488 -0.56828,-2.71446 -0.08194,-1.06459 -0.0053,-2.41784 0.17974,-3.17789 0.177088,-0.72827 0.639643,-1.78492 1.030829,-2.34899 0.391184,-0.56408 1.157701,-1.24998 1.702192,-1.52274 0.544491,-0.27542 1.437875,-0.6038 1.982367,-0.73622 0.544491,-0.12976 1.704835,-0.24893 2.577078,-0.26217 z"
       sodipodi:nodetypes="ccccccccscccccccccccssccccccccccc" />
    <path
       inkscape:connector-curvature="0"
       style="fill:#0f74f7;fill-opacity:1;fill-rule:evenodd;stroke-width:0.26457009"
       id="Path 0-6-3-3-8"
       class="shp0"
       d="m 76.26932,280.1186 c 1.593823,0.0477 2.00351,0.1536 2.318046,0.58791 0.24053,0.33633 0.377973,1.17847 0.37533,2.31721 -0.0053,1.27646 -0.12423,1.90144 -0.420261,2.18481 -0.229955,0.21715 -0.763874,0.39723 -1.963865,0.39723 v 3.97237 c 0,3.30501 -0.07666,4.10478 -0.462552,4.76154 -0.253744,0.43432 -0.729512,0.911 -1.057262,1.0593 -0.327753,0.1483 -0.861671,0.27277 -1.189424,0.27807 -0.32775,0.003 -1.01233,-0.27012 -2.444916,-1.21819 l -0.163878,-4.09684 c -0.08987,-2.25101 -0.177088,-4.24249 -0.198237,-4.42522 -0.01852,-0.18272 -0.301318,-0.33103 -0.62907,-0.33367 -0.473125,0 -0.766511,-0.36281 -1.443162,-1.78757 -0.467842,-0.97985 -1.001755,-1.98618 -1.189421,-2.23512 -0.187664,-0.24629 -0.240525,-0.54554 -0.116298,-0.66206 0.121584,-0.11652 1.548887,-0.30455 3.171785,-0.41577 1.620259,-0.11123 3.066061,-0.25688 3.211439,-0.32309 0.145373,-0.0662 1.136552,-0.0927 2.201746,-0.0609 z"
       sodipodi:nodetypes="cccccsccccccccccccc" />
    <path
       inkscape:connector-curvature="0"
       style="fill:#180ff7;fill-opacity:1;fill-rule:evenodd;stroke-width:0.26457009"
       id="Path 0-6-3-3-8-2"
       class="shp0"
       d="m 84.640223,280.74421 c 1.110126,0.0635 1.963865,0.3019 2.841395,0.79977 0.745368,0.42107 1.429943,1.0593 1.683687,1.57041 0.264316,0.527 0.364757,1.14139 0.264316,1.58894 -0.08987,0.39989 -0.549773,1.15729 -1.022901,1.68429 -0.82995,0.92159 -0.903959,0.95072 -2.180605,0.77593 -0.951535,-0.13241 -1.414087,-0.0847 -1.646685,0.16949 -0.216739,0.2304 -0.351536,1.52009 -0.396473,3.81877 -0.0555,2.635 -0.166518,3.57248 -0.467836,3.90616 -0.219382,0.24099 -0.93304,0.50581 -1.585899,0.58791 -0.655498,0.0821 -1.517169,0.0212 -2.643154,-0.41577 v -5.89235 c 0,-5.07933 0.06344,-6.01946 0.46255,-6.81923 0.359471,-0.72032 0.755947,-1.03017 1.784136,-1.39562 0.869595,-0.3072 1.863421,-0.43696 2.907469,-0.3787 z"
       sodipodi:nodetypes="cccccccccccscccc" />
    <path
       inkscape:connector-curvature="0"
       style="fill:#7d08e2;fill-opacity:1;fill-rule:evenodd;stroke-width:0.26457009"
       id="Path 0-6-3-3-8-2-2"
       class="shp0"
       d="m 92.569722,280.49997 c 1.012328,0 1.69427,0.16154 2.246688,0.52965 0.915011,0.70798 1.244418,2.36124 0.364755,3.17789 -0.288102,0.25423 -1.173565,0.43431 -2.455495,0.49787 -1.948008,0.0953 -2.016728,0.0795 -2.336554,-0.59585 -0.182372,-0.384 -0.330388,-1.11492 -0.330388,-1.62338 0,-0.57467 0.200877,-1.12815 0.52863,-1.45653 0.401757,-0.40254 0.880168,-0.52965 1.982364,-0.52965 z m 0.330393,4.78802 c 0.848453,-0.0132 1.464316,0.10858 1.585902,0.30985 0.108366,0.18273 0.330393,2.11859 0.494266,4.3034 0.16388,2.1848 0.208814,4.21071 0.103087,4.50201 -0.113655,0.31514 -0.555065,0.61175 -1.088988,0.73092 -0.491625,0.11122 -1.461662,0.20126 -2.151531,0.19862 -0.988534,-0.003 -1.311003,-0.11388 -1.519812,-0.5323 -0.145372,-0.29131 -0.266956,-2.28808 -0.269597,-4.43581 -0.0026,-2.75418 0.09515,-4.03328 0.330388,-4.33783 0.185026,-0.23834 0.512778,-0.49787 0.732158,-0.57731 0.216736,-0.0768 1.020257,-0.15096 1.784127,-0.16155 z"
       sodipodi:nodetypes="sccccscsccscccccccc" />
    <path
       inkscape:connector-curvature="0"
       style="fill:#b312f7;fill-opacity:1;fill-rule:evenodd;stroke-width:0.26457009"
       id="Path 0-6-3-3-8-2-2-7"
       class="shp0"
       d="m 100.10284,280.88661 c 0.9436,0.045 2.10395,0.27542 2.57707,0.51111 0.47313,0.23305 1.02555,0.75475 1.22642,1.15464 0.20089,0.39988 0.51278,1.20495 0.69251,1.78756 0.17974,0.58262 0.2511,1.50685 0.16124,2.05239 -0.10573,0.64617 -0.51013,1.35061 -1.15506,2.01002 -0.54449,0.56143 -1.22907,1.14934 -1.51982,1.30824 -0.44933,0.24363 -0.54713,0.63822 -0.66079,2.64294 -0.0872,1.54128 -0.2696,2.52113 -0.52863,2.83097 -0.31189,0.37076 -0.6925,0.45285 -1.770913,0.37606 -0.755944,-0.053 -1.564749,-0.27807 -1.797344,-0.49523 -0.229955,-0.2198 -0.528632,-0.93483 -0.660792,-1.58894 -0.132154,-0.65677 -0.248454,-3.51687 -0.256386,-6.35579 -0.01323,-3.77905 0.07401,-5.28325 0.31718,-5.60898 0.18502,-0.24364 0.631714,-0.50317 0.996471,-0.57467 0.362109,-0.0742 1.432592,-0.0953 2.378844,-0.0503 z"
       sodipodi:nodetypes="cccccccccccccccc" />
    <path
       inkscape:connector-curvature="0"
       style="fill:#e312f7;fill-opacity:1;fill-rule:evenodd;stroke-width:0.26437905"
       id="Path 0-6-3-3-8-2-2-7-9"
       class="shp0"
       d="m 109.88985,280.34637 c 3.33613,0.0503 4.40242,0.15624 5.08073,0.50581 0.69943,0.36017 0.85778,0.60115 0.86306,1.30294 0.003,0.47403 -0.16099,1.33736 -0.36158,1.91998 -0.20323,0.58261 -0.82612,1.83258 -1.38038,2.78065 -0.5569,0.94543 -1.43316,2.17421 -1.94783,2.7277 -0.51467,0.55083 -0.87626,1.00898 -0.80236,1.01427 0.0713,0.005 1.08213,0.0503 2.24344,0.10064 1.29327,0.0556 2.2408,0.22775 2.44667,0.44225 0.18475,0.19333 0.35631,0.94543 0.38006,1.6737 0.0238,0.72826 -0.0396,1.47242 -0.13725,1.65515 -0.10029,0.18273 -0.62816,0.44226 -1.17186,0.57731 -0.54371,0.13507 -3.12762,0.33368 -10.49138,0.63029 l -0.46452,-0.63558 c -0.30353,-0.41842 -0.46189,-1.11756 -0.46189,-2.02855 0.003,-0.76535 0.11613,-1.65781 0.25338,-1.98619 0.13989,-0.32838 0.97127,-1.37179 3.45489,-4.03857 l -0.82875,-0.13242 c -0.76805,-0.12181 -0.83667,-0.2198 -0.92377,-1.32412 -0.0528,-0.65676 -0.15044,-1.54922 -0.21906,-1.98618 -0.0713,-0.4555 -0.55426,-1.21555 -1.127,-1.77962 -0.75221,-0.73886 -0.90266,-1.01693 -0.60705,-1.11491 0.21643,-0.0689 0.75222,-0.18273 1.1877,-0.24894 0.43549,-0.0662 2.69213,-0.0927 5.01475,-0.0556 z"
       sodipodi:nodetypes="cccccccccccsccccccccccsc" />
    <path
       sodipodi:nodetypes="cccccccccccscccc"
       id="Path 1"
       class="shp1"
       d="m 14.57393,271.90052 c 8.136814,0.10539 8.348572,0.1212 8.819734,0.67187 0.391753,0.46373 0.463221,0.94063 0.397047,2.64799 -0.07676,1.86545 -0.153525,2.12893 -0.746448,2.56367 -0.524102,0.38205 -1.41084,0.52433 -7.885351,0.88793 l -0.16676,7.7727 c -0.116467,5.43825 -0.267344,7.9703 -0.500279,8.43139 -0.31499,0.62182 -0.471162,0.66398 -2.840208,0.74302 -2.1069957,0.0711 -2.5675699,0.0105 -2.9010896,-0.36887 -0.3308721,-0.37942 -0.4076346,-1.80221 -0.5293958,-16.70998 l -3.1102001,0.005 c -2.1625821,0.003 -3.2134328,-0.0975 -3.446367,-0.32935 -0.2223463,-0.22132 -0.3361664,-1.17776 -0.3414603,-2.83769 -0.00529,-2.02617 0.076762,-2.57948 0.4393985,-2.89829 0.2752858,-0.24241 1.2334923,-0.45319 2.4616905,-0.54278 1.1064372,-0.079 5.7624736,-0.0975 10.3496888,-0.0369 z"
       inkscape:connector-curvature="0"
       style="fill:#ff1500;fill-opacity:1;fill-rule:evenodd;stroke-width:0.26408881" />
    <path
       sodipodi:nodetypes="sccccccccsccsccccccc"
       id="Path 1-8"
       class="shp1"
       d="m 21.323725,278.84588 c 0.436753,-0.0158 1.005854,0.17653 1.265257,0.42684 0.381166,0.3636 0.471162,0.88003 0.463221,2.62691 -0.0079,2.06832 -0.0397,2.18689 -0.669684,2.4372 -0.365284,0.14491 -1.643774,0.26611 -2.845504,0.26875 -1.484955,0.003 -2.353164,-0.11857 -2.713153,-0.37414 -0.42881,-0.30828 -0.547924,-0.75093 -0.624687,-2.31073 -0.07147,-1.39382 0.0026,-2.02354 0.264698,-2.26067 0.198523,-0.1818 1.193787,-0.43475 2.212874,-0.55858 1.019087,-0.12647 2.210228,-0.23977 2.646978,-0.25558 z m -0.619392,6.36571 c 0.823212,0.0263 1.598777,0.14754 1.720535,0.26611 0.121762,0.1212 0.222348,2.29492 0.222348,4.83225 0,4.30791 -0.03441,4.63463 -0.529397,4.98769 -0.354695,0.25295 -1.230844,0.37678 -2.646979,0.37942 -1.752299,0 -2.220814,-0.0922 -2.713153,-0.53224 -0.582335,-0.51905 -0.592923,-0.62972 -0.468515,-4.8138 0.07676,-2.57157 0.243522,-4.38696 0.415576,-4.54505 0.156172,-0.14491 0.783506,-0.34252 1.394958,-0.44264 0.608804,-0.0975 1.781416,-0.15546 2.604627,-0.13174 z"
       inkscape:connector-curvature="0"
       style="fill:#ff9000;fill-opacity:1;fill-rule:evenodd;stroke-width:0.26408881" />
  </g>
  <style
     id="style907">
		tspan { white-space:pre }
		.shp0 { fill: #000000 } 
	</style>
  <style
     id="style2">
		tspan { white-space:pre }
		.shp0 { fill: #ffffff } 
		.shp1 { fill: #000000 } 
	</style>
</svg>
