<?xml version="1.0" encoding="UTF-8" standalone="no"?>
<svg
   xmlns:dc="http://purl.org/dc/elements/1.1/"
   xmlns:cc="http://creativecommons.org/ns#"
   xmlns:rdf="http://www.w3.org/1999/02/22-rdf-syntax-ns#"
   xmlns:svg="http://www.w3.org/2000/svg"
   xmlns="http://www.w3.org/2000/svg"
   xmlns:sodipodi="http://sodipodi.sourceforge.net/DTD/sodipodi-0.dtd"
   xmlns:inkscape="http://www.inkscape.org/namespaces/inkscape"
   viewBox="0 0 439 92"
   width="439"
   height="92"
   version="1.1"
   id="svg910"
   sodipodi:docname="logo-text-full.svg"
   inkscape:version="0.92.4 (5da689c313, 2019-01-14)">
  <metadata
     id="metadata916">
    <rdf:RDF>
      <cc:Work
         rdf:about="">
        <dc:format>image/svg+xml</dc:format>
        <dc:type
           rdf:resource="http://purl.org/dc/dcmitype/StillImage" />
        <dc:title></dc:title>
      </cc:Work>
    </rdf:RDF>
  </metadata>
  <defs
     id="defs914" />
  <sodipodi:namedview
     pagecolor="#ffffff"
     bordercolor="#666666"
     borderopacity="1"
     objecttolerance="10"
     gridtolerance="10"
     guidetolerance="10"
     inkscape:pageopacity="0"
     inkscape:pageshadow="2"
     inkscape:window-width="3000"
     inkscape:window-height="1859"
     id="namedview912"
     showgrid="false"
     inkscape:zoom="3.9043891"
     inkscape:cx="265.9315"
     inkscape:cy="77.167875"
     inkscape:window-x="-14"
     inkscape:window-y="-14"
     inkscape:window-maximized="1"
     inkscape:current-layer="svg910" />
  <style
     id="style907">
		tspan { white-space:pre }
		.shp0 { fill: #000000 } 
	</style>
  <path
     inkscape:connector-curvature="0"
     style="fill:#ffdd00;fill-rule:evenodd;stroke-width:0.9974829;fill-opacity:1"
     id="Path 0-6-3"
     class="shp0"
     d="m 126.10188,27.996285 c 1.37013,-0.01989 3.40032,0.56708 4.50043,1.313239 1.21011,0.8158 2.29021,3.084123 2.74025,5.730499 0.41004,2.397657 1.21012,13.987991 1.79017,25.757401 0.83008,16.992523 0.78008,22.195736 -0.24002,25.329599 -0.92009,2.785652 -2.02019,4.13869 -3.79036,4.626177 -1.38013,0.378053 -4.08038,0.74616 -6.00056,0.815807 -2.05019,0.07959 -4.53043,-0.636727 -6.00057,-1.731091 -1.38013,-1.034675 -4.19039,-5.073872 -6.25059,-8.993693 -2.06019,-3.909872 -4.20039,-7.11338 -4.75044,-7.11338 -0.57006,0 -0.9901,2.875199 -0.9701,6.715429 0.03,5.19326 -0.37003,7.093478 -1.75016,8.366916 -0.98009,0.915294 -4.2604,2.109145 -7.280689,2.656322 -3.03028,0.547187 -6.75063,0.696418 -8.29078,0.328311 -1.53014,-0.358151 -2.96028,-1.333135 -3.1703,-2.148932 -0.21002,-0.825754 -0.69006,-13.361209 -1.0601,-27.856586 -0.67006,-25.896684 -0.65006,-26.404072 1.41014,-28.463471 1.50014,-1.492317 4.03038,-2.308117 8.86083,-2.8553 6.310599,-0.716313 6.900649,-0.606876 9.020849,1.601754 1.26012,1.293342 2.77026,3.91982 3.36032,5.839936 0.60006,1.910166 2.28021,6.068758 3.73035,9.24242 1.45014,3.163713 2.98028,5.740448 3.39032,5.720551 0.41004,-0.0199 0.46004,-3.959617 0.10001,-8.744982 -0.43004,-5.810089 -0.26003,-9.451344 0.50005,-10.943661 0.63006,-1.23365 2.61024,-2.895097 4.40041,-3.690999 1.79017,-0.795903 4.37041,-1.47242 5.75054,-1.502266 z"
     sodipodi:nodetypes="cccccccccsccccccccccccccsc" />
  <path
     inkscape:connector-curvature="0"
     style="fill:#26cc10;fill-rule:evenodd;stroke-width:0.9974829;fill-opacity:1"
     id="Path 0-6-3-7"
     class="shp0"
     d="m 149.60442,27.635317 c 5.55052,-0.01989 6.23058,0.228822 12.00113,6.596043 l 2.75026,-3.34279 c 2.63025,-3.203509 3.05028,-3.352741 9.50089,-3.36269 4.87046,0 7.4207,0.477542 9.15086,1.741037 2.0602,1.502266 2.33022,2.37776 1.94019,6.227939 -0.24003,2.45735 -1.83017,7.163124 -3.52033,10.446223 -1.69016,3.283099 -4.27041,7.76005 -5.73054,9.948783 -2.0902,3.143816 -2.67026,5.23306 -2.72026,9.948784 -0.04,3.283102 -0.01,9.550832 0.06,13.928302 0.12001,6.4468 -0.20002,8.28733 -1.64016,9.70005 -1.0401,1.02473 -4.09038,1.9997 -7.29069,2.35786 -3.58033,0.388 -6.82064,0.12934 -9.27087,-0.7561 -2.0802,-0.74616 -3.77036,-1.6913 -3.75035,-2.09919 0.01,-0.4079 -0.21002,-1.19386 -0.48005,-1.74104 -0.28002,-0.54718 -0.48004,-8.04856 -0.43004,-32.333544 l -3.90037,-4.476952 c -2.1402,-2.467299 -5.08048,-6.158298 -6.53061,-8.207747 -1.45014,-2.049449 -2.44023,-4.516748 -2.20021,-5.471832 0.24002,-0.955082 0.77007,-2.994583 1.18011,-4.516747 0.41004,-1.532113 1.68016,-3.183611 2.81027,-3.671101 1.1401,-0.48749 4.77045,-0.895391 8.07076,-0.915288 z"
     sodipodi:nodetypes="ccccccscccccccccccscccc" />
  <path
     inkscape:connector-curvature="0"
     style="fill:#18c1f5;fill-rule:evenodd;stroke-width:0.9974829;fill-opacity:1"
     id="Path 0-6-3-3"
     class="shp0"
     d="m 234.61203,10.499503 c 4.46042,-0.06965 7.35069,0.547183 11.25106,2.387707 3.95037,1.870371 5.62053,3.332842 6.75063,5.959321 0.82008,1.910169 1.50015,5.382293 1.51015,7.710309 0,2.328015 -0.67007,5.23306 -1.50015,6.466709 -0.83007,1.23365 -3.2003,2.686172 -5.26049,3.223407 -2.0602,0.547183 -6.00057,1.044622 -13.7513,1.213751 l 7.11067,1.631601 c 3.91037,0.905338 7.96075,2.377759 9.00085,3.273149 1.0401,0.895391 3.2203,4.476953 4.86046,7.959027 2.28021,4.864955 2.95028,7.710307 2.92027,12.296696 -0.03,4.42721 -0.80007,7.620769 -2.97028,12.326544 -1.60015,3.501971 -4.50042,7.779949 -6.4206,9.520986 -1.93018,1.731083 -5.08048,3.671098 -7.00066,4.307808 -1.93018,0.64668 -8.68082,1.55201 -15.00141,2.03951 -6.41061,0.47754 -12.94122,0.48749 -14.75139,0.0199 -2.38023,-0.62677 -3.65035,-1.79078 -4.75045,-4.337665 -0.83008,-1.920111 -1.50014,-6.058805 -1.49014,-9.20262 0,-3.143816 0.45004,-7.401895 1.00009,-9.451345 0.54005,-2.049449 1.89018,-4.626184 2.99028,-5.72055 1.76017,-1.750986 3.33032,-1.989757 13.00123,-1.989757 6.05057,0 11.01104,-0.338258 11.02104,-0.746159 0.01,-0.4079 -0.56005,-1.313239 -1.25012,-2.009654 -0.82008,-0.815801 -4.18039,-1.253547 -9.5209,-1.243598 -4.54042,0.01 -9.15086,-0.427798 -10.25096,-0.974981 -1.10011,-0.547183 -2.73026,-2.447401 -3.62034,-4.228233 -0.89009,-1.780833 -1.86018,-6.367222 -2.15021,-10.197503 -0.31003,-3.999411 -0.02,-9.08324 0.68007,-11.938541 0.67006,-2.735915 2.42023,-6.70548 3.90036,-8.824572 1.48014,-2.119091 4.38042,-4.695826 6.44061,-5.720551 2.0602,-1.034674 5.44051,-2.268323 7.50071,-2.765761 2.06019,-0.48749 6.45061,-0.935186 9.75092,-0.984929 z"
     sodipodi:nodetypes="ccccccccscccccccccccssccccccccccc" />
  <path
     inkscape:connector-curvature="0"
     style="fill:#0f74f7;fill-rule:evenodd;stroke-width:0.9974829;fill-opacity:1"
     id="Path 0-6-3-3-8"
     class="shp0"
     d="m 284.94662,33.550835 c 6.03057,0.179078 7.58071,0.577029 8.77083,2.20863 0.91008,1.263496 1.43013,4.427209 1.42013,8.705185 -0.02,4.795315 -0.47004,7.143227 -1.59015,8.207747 -0.87008,0.815801 -2.89027,1.492318 -7.4307,1.492318 V 69.08789 c 0,12.416082 -0.29003,15.420615 -1.75016,17.887908 -0.96009,1.6316 -2.76026,3.42238 -4.00038,3.97951 -1.24012,0.55713 -3.26031,1.02472 -4.50043,1.04462 -1.24011,0.01 -3.83036,-1.01478 -9.25087,-4.576435 L 265.99483,72.03273 c -0.34003,-8.456466 -0.67006,-15.937951 -0.75007,-16.624417 -0.07,-0.686467 -1.1401,-1.243598 -2.38022,-1.253547 -1.79017,0 -2.90027,-1.362984 -5.46051,-6.715429 -1.77017,-3.681049 -3.79036,-7.461588 -4.50043,-8.396773 -0.71007,-0.925237 -0.91008,-2.049449 -0.44004,-2.487196 0.46004,-0.437747 5.86055,-1.144111 12.00113,-1.561959 6.13058,-0.41785 11.60109,-0.965033 12.15115,-1.213752 0.55005,-0.248719 4.3004,-0.348207 8.33078,-0.228822 z"
     sodipodi:nodetypes="cccccsccccccccccccc" />
  <path
     inkscape:connector-curvature="0"
     style="fill:#180ff7;fill-rule:evenodd;stroke-width:0.9974829;fill-opacity:1"
     id="Path 0-6-3-3-8-2"
     class="shp0"
     d="m 316.61972,35.90108 c 4.20039,0.23877 7.4307,1.13416 10.75101,3.00453 2.82026,1.58186 5.41051,3.97952 6.3706,5.89963 1.00009,1.97981 1.38013,4.28793 1.00009,5.96927 -0.34003,1.50227 -2.08019,4.34762 -3.87036,6.32743 -3.1403,3.46217 -3.42032,3.57161 -8.25078,2.91499 -3.60034,-0.49744 -5.3505,-0.31836 -6.23059,0.63672 -0.82007,0.86555 -1.33012,5.7106 -1.50014,14.34615 -0.21002,9.89904 -0.63006,13.4209 -1.77016,14.67445 -0.83008,0.90534 -3.53034,1.90021 -6.00057,2.20863 -2.48023,0.30841 -5.74054,0.0796 -10.00094,-1.56196 V 68.18489 c 0,-19.08177 0.24002,-22.61359 1.75016,-25.61812 1.36013,-2.70607 2.86027,-3.87008 6.75064,-5.24301 3.29031,-1.15406 7.05066,-1.64155 11.00104,-1.42267 z"
     sodipodi:nodetypes="cccccccccccscccc" />
  <path
     inkscape:connector-curvature="0"
     style="fill:#7d08e2;fill-rule:evenodd;stroke-width:0.9974829;fill-opacity:1"
     id="Path 0-6-3-3-8-2-2"
     class="shp0"
     d="m 346.62266,34.983539 c 3.83036,0 6.41063,0.60687 8.50082,1.98975 3.46214,2.659706 4.70853,8.870593 1.38013,11.938541 -1.0901,0.95509 -4.44044,1.6316 -9.29089,1.87037 -7.3707,0.35816 -7.63072,0.29847 -8.84084,-2.23847 -0.69006,-1.44258 -1.25011,-4.18844 -1.25011,-6.098611 0,-2.15888 0.76007,-4.23818 2.00019,-5.47183 1.52014,-1.51221 3.33031,-1.98975 7.5007,-1.98975 z m 1.25012,17.987391 c 3.2103,-0.0497 5.54054,0.4079 6.00059,1.16401 0.41003,0.68646 1.25011,7.95902 1.87017,16.16677 0.62006,8.20775 0.79008,15.81857 0.39004,16.91293 -0.43004,1.1839 -2.1002,2.29817 -4.12041,2.74586 -1.86018,0.41785 -5.53052,0.75611 -8.14077,0.74616 -3.74035,-0.01 -4.96046,-0.4278 -5.75054,-1.99971 -0.55005,-1.09436 -1.01009,-8.59574 -1.02009,-16.6642 -0.01,-10.34674 0.36003,-15.152 1.25011,-16.29611 0.70007,-0.89539 1.94019,-1.87037 2.77026,-2.16883 0.82008,-0.28852 3.86037,-0.56709 6.75064,-0.60688 z"
     sodipodi:nodetypes="sccccscsccscccccccc" />
  <path
     inkscape:connector-curvature="0"
     style="fill:#b312f7;fill-rule:evenodd;stroke-width:0.9974829;fill-opacity:1"
     id="Path 0-6-3-3-8-2-2-7"
     class="shp0"
     d="m 375.1258,36.436058 c 3.57033,0.16913 7.96075,1.03467 9.75092,1.92011 1.79017,0.8755 3.88036,2.83541 4.64043,4.33767 0.76008,1.50227 1.94019,4.526702 2.62025,6.715432 0.68007,2.18873 0.95009,5.66086 0.61006,7.71031 -0.40004,2.4275 -1.93018,5.07388 -4.37041,7.55113 -2.0602,2.10914 -4.65044,4.31777 -5.75055,4.9147 -1.70016,0.91528 -2.07019,2.39765 -2.50023,9.92888 -0.33003,5.79019 -1.0201,9.47124 -2.00019,10.63524 -1.18011,1.39284 -2.62025,1.70124 -6.70063,1.41273 -2.86027,-0.19897 -5.92056,-1.04462 -6.80064,-1.86042 -0.87008,-0.82575 -2.00019,-3.51192 -2.50024,-5.96926 -0.50004,-2.4673 -0.94009,-13.21199 -0.97009,-23.87708 -0.05,-14.19692 0.28003,-19.847832 1.20011,-21.071532 0.70007,-0.91529 2.39023,-1.89027 3.77036,-2.15889 1.37013,-0.27856 5.42051,-0.35815 9.00085,-0.18902 z"
     sodipodi:nodetypes="cccccccccccccccc" />
  <path
     inkscape:connector-curvature="0"
     style="fill:#e312f7;fill-rule:evenodd;stroke-width:0.9974829;fill-opacity:1"
     id="Path 0-6-3-3-8-2-2-7-9"
     class="shp0"
     d="m 412.62973,34.406498 c 12.64119,0.18903 16.68157,0.58698 19.25182,1.90022 2.65025,1.35304 3.2503,2.25837 3.2703,4.8948 0.01,1.78083 -0.61005,5.024142 -1.37012,7.212872 -0.77008,2.18873 -3.1303,6.88456 -5.2305,10.44622 -2.1102,3.55172 -5.43051,8.16795 -7.38069,10.24725 -1.95019,2.06935 -3.32032,3.79049 -3.04029,3.81038 0.27003,0.0199 4.10039,0.18903 8.5008,0.37806 4.90046,0.20892 8.4908,0.85559 9.27087,1.66144 0.70007,0.72627 1.35013,3.55172 1.44014,6.28764 0.09,2.73591 -0.15001,5.53152 -0.52005,6.21798 -0.38003,0.68647 -2.38022,1.66145 -4.44042,2.16883 C 430.3214,90.13958 420.53048,90.88574 392.62785,92 l -1.76017,-2.3877 c -1.15011,-1.57191 -1.75016,-4.19838 -1.75016,-7.62076 0.01,-2.8752 0.44004,-6.22794 0.96009,-7.46159 0.53005,-1.23365 3.68034,-5.15347 13.09123,-15.1719 l -3.1403,-0.49744 c -2.91027,-0.45764 -3.17029,-0.82575 -3.50033,-4.97439 -0.20001,-2.4673 -0.57005,-5.82004 -0.83007,-7.46159 -0.27003,-1.71119 -2.1002,-4.566492 -4.27041,-6.685582 -2.85026,-2.77571 -3.42032,-3.82033 -2.30021,-4.18844 0.82007,-0.25867 2.85027,-0.68646 4.50042,-0.93518 1.65016,-0.24872 10.20096,-0.34821 19.00179,-0.20893 z"
     sodipodi:nodetypes="cccccccccccsccccccccccsc" />
  <style
     id="style2">
		tspan { white-space:pre }
		.shp0 { fill: #ffffff } 
		.shp1 { fill: #000000 } 
	</style>
  <g
     id="g838"
     transform="translate(-7.5,-3)">
    <path
       style="fill:#ff1500;fill-opacity:1;fill-rule:evenodd;stroke-width:0.99813092"
       inkscape:connector-curvature="0"
       d="m 57.58257,5.135915 c 30.753312,0.398334 31.553659,0.458084 33.334429,2.539378 1.480641,1.752668 1.750758,3.555128 1.50065,10.008134 -0.290125,7.050507 -0.580251,8.046341 -2.821221,9.689468 -1.980857,1.443959 -5.332308,1.98171 -29.802902,3.355961 l -0.630272,29.377111 c -0.440191,20.55402 -1.010437,30.123987 -1.890819,31.866697 -1.190515,2.350169 -1.780771,2.509502 -10.734646,2.808252 -7.963448,0.268874 -9.704201,0.03983 -10.964748,-1.394168 -1.25054,-1.434001 -1.540666,-6.811506 -2.000866,-63.155809 l -11.755087,0.01992 C 13.643549,30.260814 9.6718298,29.882397 8.7914487,29.006063 7.9510849,28.169562 7.5208986,24.554684 7.5008901,18.280928 7.4808813,10.622962 7.7910157,8.53171 9.1616089,7.326751 10.202059,6.410583 13.823627,5.613916 18.465636,5.275332 22.647446,4.9765819 40.245064,4.9068735 57.58257,5.135915 Z"
       class="shp1"
       id="Path 1"
       sodipodi:nodetypes="cccccccccccscccc" />
    <path
       style="fill:#ff9000;fill-opacity:1;fill-rule:evenodd;stroke-width:0.99813092"
       inkscape:connector-curvature="0"
       d="m 83.093609,31.386107 c 1.65072,-0.05975 3.80165,0.667209 4.78207,1.613251 1.44063,1.374252 1.78077,3.326087 1.75076,9.928468 -0.03,7.817299 -0.15006,8.265424 -2.53109,9.211467 -1.3806,0.547709 -6.21269,1.005793 -10.75466,1.015751 -5.61243,0.01 -8.893849,-0.448125 -10.254438,-1.414085 -1.620701,-1.165126 -2.070896,-2.838127 -2.361023,-8.733466 -0.270116,-5.267964 0.01,-7.648007 1.000433,-8.544258 0.750326,-0.687126 4.511953,-1.643127 8.363618,-2.111169 3.85167,-0.478 8.35362,-0.906209 10.00433,-0.965959 z m -2.34101,24.059356 c 3.11135,0.09958 6.04262,0.557667 6.50281,1.005792 0.4602,0.458084 0.84037,8.673717 0.84037,18.263601 0,16.28189 -0.13006,17.516725 -2.00087,18.851143 C 84.754329,94.522 81.442899,94.990042 76.090579,95 69.467715,95 67.696948,94.651458 65.836142,92.988415 63.63519,91.026621 63.595172,90.608371 64.065376,74.794523 c 0.290125,-9.719343 0.920398,-16.580641 1.57068,-17.178142 0.590255,-0.547708 2.961282,-1.294584 5.272282,-1.673001 2.300991,-0.368459 6.732911,-0.587542 9.844261,-0.497917 z"
       class="shp1"
       id="Path 1-8"
       sodipodi:nodetypes="sccccccccsccsccccccc" />
  </g>
</svg>
